<svg xmlns="http://www.w3.org/2000/svg" viewBox="160 80 220 200">
  <rect x="160" y="80" width="220" height="200" rx="24" fill="#F4F4F0"/>
  <path fill="#281F33" d="M352.83,133.25l-2.6-16.84c-.25-2.16-1.15-3.99-2.68-5.45-1.56-1.49-3.56-2.24-5.97-2.24h-141.21c-2.41,0-4.41.76-5.97,2.24-1.53,1.46-2.43,3.29-2.67,5.4l-2.61,16.95c-.16,1.43.12,2.55.82,3.33.65.72,1.59,1.09,2.8,1.09,2.31,0,3.98-1.26,4.71-3.58,1.44-5.03,4.02-8.74,7.9-11.35,3.87-2.6,8.59-3.91,14.02-3.91h23.55c2.05,0,3.63.55,4.85,1.67,1.18,1.09,1.75,2.55,1.75,4.45v114.51c0,1.81-.55,4.32-5.38,5.16l-2.63.47c-2.1.16-3.36,1.58-3.36,3.79,0,.78.28,3.3,3.84,3.3l15.98-.65h7.09V121.92l5.73-4.84,5.88,4.84v129.68h7.2l16.13.65c3.51,0,3.79-2.53,3.79-3.3,0-2.21-1.25-3.62-3.23-3.77l-2.76-.49c-4.82-.84-5.38-3.35-5.38-5.16v-114.51c0-1.9.58-3.35,1.75-4.45,1.22-1.13,2.8-1.67,4.85-1.67h23.55c5.43,0,10.15,1.32,14.02,3.91,3.88,2.6,6.46,6.32,7.91,11.39.72,2.29,2.39,3.55,4.7,3.55,1.21,0,2.15-.37,2.8-1.09.7-.78.98-1.9.81-3.39Z"/>
</svg>
