<?xml version="1.0" encoding="UTF-8"?>
<svg id="Layer_1" xmlns="http://www.w3.org/2000/svg" version="1.1" viewBox="0 0 546.08 342.3">
  <!-- Generator: Adobe Illustrator 30.5.1, SVG Export Plug-In . SVG Version: 2.1.4 Build 3)  -->
  <defs>
    <style>
      .st0 {
        fill: #bdbdbd;
      }
    </style>
  </defs>
  <path class="st0" d="M195.46,81.76v145.63h145.63V81.76h-145.63ZM312.72,129.17c-.36.4-.88.6-1.55.6-1.27,0-2.2-.69-2.59-1.96-.8-2.8-2.22-4.84-4.36-6.28-2.13-1.43-4.74-2.16-7.74-2.16h-12.99c-1.13,0-2,.3-2.67.92-.65.6-.97,1.41-.97,2.45v63.17c0,1,.31,2.39,2.96,2.85l1.52.27c1.09.08,1.78.86,1.78,2.08,0,.43-.15,1.82-2.09,1.82l-8.9-.36h-3.97v-71.54l-3.24-2.67-3.16,2.67v71.54h-3.91l-8.81.36c-1.97,0-2.12-1.39-2.12-1.82,0-1.22.69-2,1.85-2.09l1.45-.26c2.66-.46,2.97-1.85,2.97-2.85v-63.17c0-1.05-.32-1.85-.97-2.45-.67-.62-1.55-.92-2.67-.92h-12.99c-3,0-5.6.73-7.74,2.16-2.14,1.43-3.56,3.48-4.36,6.26-.4,1.28-1.32,1.98-2.6,1.98-.67,0-1.19-.2-1.55-.6-.39-.43-.54-1.05-.45-1.84l1.44-9.35c.14-1.16.63-2.18,1.48-2.98.86-.82,1.97-1.24,3.29-1.24h77.9c1.33,0,2.43.42,3.29,1.24.84.8,1.34,1.82,1.48,3.01l1.43,9.29c.09.82-.06,1.44-.45,1.87Z"/>
  <g>
    <path class="st0" d="M203.83,241.05h2.51c.44,0,.65.23.65.71v16.78c0,.33-.12.59-.35.78-.24.2-.55.32-.9.35l-1.1.06c-.29,0-.46.17-.46.49,0,.15.06.27.17.37.11.1.22.14.35.14h0l3.7-.12,3.38.12c.12,0,.24-.05.35-.14.11-.1.17-.22.17-.37,0-.31-.16-.49-.45-.49h0l-.86-.06c-.36-.04-.66-.16-.91-.35-.24-.19-.35-.45-.35-.78v-16.78c0-.49.21-.71.65-.71h2.51c.93,0,1.66.25,2.19.75.53.51.98,1.29,1.34,2.33.14.34.33.51.58.51.23,0,.41-.06.53-.18.12-.12.17-.28.15-.46l-.3-3.71c-.06-.67-.46-.81-.78-.81h-16.57c-.45,0-.71.23-.75.66l-.24,3.85c-.02.17.02.32.14.45.12.13.3.2.53.2.25,0,.45-.17.59-.52.31-1.02.75-1.79,1.29-2.31.54-.51,1.29-.77,2.24-.77Z"/>
    <path class="st0" d="M235.35,260.61c.38,0,.71-.12.98-.37.27-.24.42-.55.46-.91l.48-3.11c.02-.17-.02-.32-.13-.45-.11-.13-.29-.2-.55-.2-.28,0-.47.18-.59.55-.29.95-.81,1.68-1.53,2.18-.73.49-1.61.75-2.62.75h-4.93c-.42,0-.74-.11-1-.35-.25-.23-.37-.54-.37-.93v-6.94c0-.28.13-.32.26-.32h5.59c.59,0,.96.48,1.13,1.47l.09.54c.05.28.23.44.53.44h0c.31-.05.47-.24.47-.55l-.12-2.41.12-2.55c0-.45-.29-.52-.46-.52-.28,0-.47.15-.54.43l-.12.39c-.1.31-.17.53-.22.65-.04.11-.14.22-.29.35-.14.13-.34.19-.59.19h-5.56c-.2,0-.29-.09-.29-.29v-6.28c0-.41.13-.73.37-.96.25-.23.58-.35,1-.35h4.69c1.03,0,1.85.2,2.43.58.58.38,1.02,1.05,1.31,1.98.11.36.37.55.74.55.19,0,.33-.05.42-.15.1-.11.14-.28.11-.49l-.42-2.75c-.04-.36-.19-.67-.45-.91-.26-.25-.59-.37-.99-.37h-10.61l-3.38-.12c-.33,0-.52.18-.52.5,0,.43.26.5.41.5h0l.87.09c.87.07,1.29.43,1.29,1.1v16.98c0,.33-.12.59-.35.78-.24.2-.56.31-.93.35l-.86.06c-.16,0-.43.06-.43.5,0,.32.18.5.52.5l3.38-.12h11.21Z"/>
    <path class="st0" d="M256.95,260.24c.25-.24.41-.55.45-.91l.48-3.11c.02-.22-.01-.38-.11-.5-.09-.1-.23-.15-.4-.15-.36,0-.61.19-.72.55-.27.95-.78,1.68-1.52,2.17-.74.49-1.64.75-2.67.75h-4.34c-.42,0-.74-.11-1-.35-.25-.23-.37-.54-.37-.93v-16.21c0-.61.37-.97,1.12-1.1l.5-.09c.31-.02.48-.22.48-.55,0-.17-.07-.46-.55-.46l-2.95.12-3.38-.12c-.33,0-.52.18-.52.52,0,.27.14.44.42.49l.87.09c.87.07,1.29.43,1.29,1.1v16.98c0,.33-.12.59-.35.78-.24.2-.56.31-.93.35l-.86.06c-.16,0-.43.06-.43.5,0,.32.18.5.52.5l3.38-.12h10.62c.4,0,.74-.12.99-.37Z"/>
    <path class="st0" d="M278.04,256.22c.02-.22-.01-.39-.11-.5-.09-.1-.22-.15-.4-.15-.36,0-.61.19-.72.55-.27.95-.78,1.68-1.52,2.17-.74.49-1.64.75-2.67.75h-4.34c-.42,0-.74-.11-1-.35-.25-.23-.37-.54-.37-.93v-16.21c0-.61.37-.97,1.12-1.1l.5-.09c.31-.02.48-.22.48-.55,0-.17-.07-.46-.55-.46l-2.95.12-3.38-.12c-.33,0-.52.18-.52.52,0,.27.14.44.42.49l.87.09c.87.07,1.29.43,1.29,1.1v16.98c0,.33-.12.59-.35.78-.24.2-.56.31-.93.35l-.86.06c-.16,0-.43.06-.43.5,0,.32.18.5.52.5l3.38-.12h10.62c.4,0,.74-.12.99-.37.25-.24.41-.55.45-.91l.48-3.11Z"/>
    <path class="st0" d="M281.88,240.36l.87.09c.87.07,1.29.43,1.29,1.1v16.98c0,.67-.37,1.04-1.14,1.13l-.51.06c-.19.03-.41.15-.41.53,0,.3.18.47.52.47h0l2.95-.12,3.38.12c.12,0,.24-.05.35-.14.11-.1.17-.22.17-.37,0-.31-.16-.49-.45-.49h0l-.86-.06c-.36-.04-.66-.16-.91-.35-.24-.19-.35-.45-.35-.78v-16.98c0-.61.37-.97,1.12-1.1l.5-.09c.31-.02.48-.22.48-.55,0-.17-.07-.46-.55-.46l-2.95.12-3.38-.12c-.33,0-.52.18-.52.52,0,.27.14.44.42.49Z"/>
    <path class="st0" d="M292.52,260.73h0l2.71-.12,2.61.12c.35,0,.55-.18.55-.52,0-.19-.08-.42-.48-.48l-.66-.06c-.25-.02-.45-.11-.59-.28-.14-.17-.22-.32-.22-.45,0-.14.02-.26.05-.37l1.76-4.57c.06-.16.19-.24.39-.24h7.75c.28,0,.36.13.39.24l1.77,4.58c.05.11.08.23.08.38,0,.13-.08.28-.23.44-.15.16-.35.25-.58.27l-.69.06c-.29.02-.45.22-.45.55,0,.17.07.46.52.46l3.07-.12,3.44.12c.33,0,.52-.19.52-.55,0-.1-.04-.2-.11-.3-.1-.13-.21-.16-.28-.16h0l-.63-.06c-.84-.08-1.37-.46-1.62-1.17l-7.66-18.93c-.12-.28-.39-.42-.82-.42s-.7.14-.79.42l-7.68,18.93c-.29.69-.83,1.07-1.66,1.17l-.56.06c-.16,0-.43.06-.43.5,0,.32.18.5.52.5ZM299.03,252.15s-.02-.07,0-.13l3.47-8.98,3.47,8.91c.03.09.04.16.01.19-.02.02-.06.04-.13.04h-6.67c-.08,0-.13-.01-.15-.04Z"/>
    <path class="st0" d="M322.87,260.24c0-.2-.08-.45-.47-.51l-.51-.09c-.75-.13-1.12-.49-1.12-1.1v-14.29c0-.16.03-.2.02-.2.05,0,.09.01.1.02l12.59,16.12c.38.5.84.76,1.36.76h.39c.27,0,.43-.16.43-.46v-18.93c0-.61.36-.97,1.12-1.1l.51-.09c.39-.06.47-.31.47-.52,0-.17-.07-.45-.55-.45l-2.33.09-2.9-.09c-.45,0-.52.28-.52.45,0,.29.14.47.42.52l.87.09c.85.09,1.26.45,1.26,1.1v14.5c0,.07-.01.08-.02.08-.05,0-.1-.02-.13-.05l-12.47-16c-.32-.38-.78-.58-1.39-.6l-2.4-.09c-.47,0-.55.29-.55.47,0,.3.15.48.44.53l.54.06c.75.09,1.11.45,1.11,1.1v16.98c0,.65-.42,1.01-1.29,1.1l-.87.09c-.27.05-.41.23-.41.51,0,.17.07.45.52.45l2.89-.09,2.34.09c.47,0,.54-.28.54-.45Z"/>
    <path class="st0" d="M217.08,283.89s-.13.07-.61.39c-.35.24-.65.41-.87.52-.23.11-.65.28-1.31.54-.63.24-1.6.37-2.88.37-2.21,0-4.08-1-5.56-2.98-1.49-1.99-2.24-4.28-2.24-6.82s.71-4.65,2.12-6.28c1.4-1.63,3.31-2.45,5.68-2.45,1.31,0,2.46.38,3.41,1.12.95.74,1.62,1.78,1.97,3.09.14.56.49.67.75.67.17,0,.31-.08.42-.24.1-.14.15-.3.15-.46v-3.41c0-.49-.69-.96-2.11-1.44-1.37-.46-2.92-.69-4.59-.69-3.24,0-5.89,1.04-7.87,3.08-1.98,2.04-2.99,4.66-2.99,7.78s.99,5.75,2.93,7.81c1.94,2.06,4.51,3.11,7.64,3.11,1.8,0,3.38-.36,4.68-1.06.72-.38,1.44-.96,2.12-1.72.18-.18.27-.35.27-.52s-.08-.33-.24-.5c-.18-.19-.47-.16-.86.09Z"/>
    <path class="st0" d="M242.31,286.39h0l-.63-.06c-.84-.08-1.37-.46-1.62-1.17l-7.66-18.93c-.12-.28-.39-.42-.82-.42s-.7.14-.79.42l-7.69,18.93c-.29.69-.83,1.07-1.66,1.17l-.56.06c-.16,0-.43.06-.43.5,0,.32.18.5.52.5h0l2.71-.12,2.61.12c.35,0,.55-.18.55-.52,0-.19-.08-.42-.48-.49l-.66-.06c-.25-.02-.45-.11-.59-.28-.14-.17-.22-.32-.22-.45,0-.14.02-.26.05-.37l1.76-4.57c.07-.16.19-.24.39-.24h7.75c.28,0,.36.13.39.24l1.77,4.58c.05.11.08.23.08.38,0,.13-.08.28-.23.44-.15.16-.35.25-.58.27l-.69.06c-.29.02-.45.22-.45.55,0,.17.07.46.52.46l3.07-.12,3.44.12c.33,0,.52-.19.52-.55,0-.1-.04-.2-.11-.3-.1-.13-.21-.16-.28-.16ZM227.5,278.82s-.02-.07,0-.13l3.47-8.98,3.47,8.91c.03.09.04.16.01.19-.02.02-.06.04-.13.04h-6.67c-.08,0-.13-.01-.15-.04Z"/>
    <path class="st0" d="M260.37,267.75c-1.3-1.07-3.12-1.61-5.43-1.61h-4.18l-4.13-.12c-.33,0-.52.18-.52.52,0,.27.14.44.42.49l.87.09c.87.08,1.29.43,1.29,1.1v16.98c0,.71-.37,1.07-1.14,1.13l-.87.06c-.29.02-.45.22-.45.55,0,.17.07.46.55.46l3.31-.12,3.74.12c.33,0,.52-.18.52-.5,0-.43-.27-.5-.42-.5h0l-1.26-.06c-.36-.02-.66-.13-.9-.34-.24-.2-.35-.46-.35-.79v-6.73c0-.13.04-.26.35-.26h3.53c2.13,0,3.85-.59,5.12-1.76,1.27-1.17,1.92-2.66,1.92-4.42s-.66-3.2-1.96-4.28ZM251.42,268.75c0-.74.36-1.1,1.1-1.1h1.79c1.62,0,2.89.41,3.76,1.23.87.81,1.31,1.9,1.31,3.22s-.44,2.42-1.32,3.26c-.88.85-2.14,1.27-3.76,1.27h-2.66c-.12,0-.23-.04-.23-.29v-7.6Z"/>
    <path class="st0" d="M273.38,286.39h0l-.86-.06c-.36-.04-.66-.16-.91-.35-.24-.19-.35-.45-.35-.78v-16.98c0-.61.37-.97,1.12-1.1l.5-.09c.31-.02.48-.22.48-.55,0-.17-.07-.46-.55-.46l-2.95.12-3.38-.12c-.33,0-.52.18-.52.52,0,.27.14.44.42.49l.87.09c.87.08,1.29.43,1.29,1.1v16.98c0,.67-.37,1.04-1.14,1.13l-.51.06c-.19.03-.41.15-.41.53,0,.3.18.47.52.47h0l2.95-.12,3.38.12c.12,0,.24-.05.35-.14.11-.1.17-.22.17-.37,0-.31-.16-.49-.45-.49Z"/>
    <path class="st0" d="M295.01,266.15h-16.57c-.45,0-.71.23-.75.66l-.24,3.85c-.02.17.02.32.14.45.12.13.3.2.53.2.25,0,.45-.17.59-.52.31-1.02.75-1.79,1.29-2.31.54-.51,1.29-.77,2.24-.77h2.51c.44,0,.65.23.65.71v16.77c0,.33-.12.59-.35.78-.24.2-.55.32-.9.35l-1.1.06c-.29,0-.46.17-.46.49,0,.15.06.27.17.37.11.1.22.14.35.14h0l3.7-.12,3.38.12c.12,0,.24-.05.35-.14.11-.1.17-.22.17-.37,0-.31-.16-.49-.45-.49h0l-.86-.06c-.36-.04-.66-.16-.91-.35-.24-.19-.35-.45-.35-.78v-16.77c0-.49.21-.71.65-.71h2.51c.93,0,1.66.25,2.19.75.53.51.98,1.29,1.34,2.33.14.34.33.51.58.51.24,0,.41-.06.53-.18.12-.12.17-.28.15-.46l-.3-3.71c-.06-.67-.46-.81-.78-.81Z"/>
    <path class="st0" d="M317.66,286.39l-.63-.06c-.84-.08-1.37-.46-1.62-1.17l-7.66-18.93c-.12-.28-.39-.42-.82-.42s-.7.14-.79.42l-7.69,18.93c-.29.69-.83,1.07-1.66,1.17l-.56.06c-.16,0-.43.06-.43.5,0,.32.18.5.52.5h0l2.71-.12,2.61.12c.35,0,.55-.18.55-.52,0-.19-.08-.42-.48-.49l-.66-.06c-.26-.02-.45-.11-.59-.28-.14-.17-.22-.32-.22-.45,0-.14.02-.26.05-.37l1.76-4.57c.07-.16.19-.24.39-.24h7.75c.28,0,.36.13.39.24l1.77,4.58c.05.11.08.23.08.38,0,.13-.08.28-.23.44-.15.16-.35.25-.58.27l-.69.06c-.29.02-.45.22-.45.55,0,.17.07.46.52.46l3.07-.12,3.44.12c.33,0,.52-.19.52-.55,0-.1-.04-.2-.11-.3-.1-.13-.22-.16-.28-.16ZM302.84,278.82s-.02-.07,0-.13l3.47-8.98,3.47,8.91c.03.09.04.16.01.19-.02.02-.06.04-.13.04h-6.67c-.08,0-.13-.01-.15-.04Z"/>
    <path class="st0" d="M337.21,282.23c-.36,0-.61.19-.72.55-.27.95-.78,1.68-1.52,2.17-.74.49-1.64.75-2.67.75h-4.34c-.42,0-.74-.11-1-.35-.25-.23-.37-.54-.37-.93v-16.21c0-.61.37-.97,1.12-1.1l.5-.09c.31-.02.48-.22.48-.55,0-.17-.07-.46-.55-.46l-2.95.12-3.38-.12c-.33,0-.52.18-.52.52,0,.27.14.44.42.49l.87.09c.87.08,1.29.43,1.29,1.1v16.98c0,.33-.12.59-.35.78-.24.2-.56.31-.93.35l-.86.06c-.16,0-.43.06-.43.5,0,.32.18.5.52.5l3.38-.12h10.62c.4,0,.74-.12.99-.37.25-.24.41-.55.45-.91l.48-3.11c.02-.22-.01-.39-.11-.5-.09-.1-.23-.15-.4-.15Z"/>
  </g>
</svg>