<?xml version="1.0" encoding="UTF-8"?>
<svg id="Layer_1" xmlns="http://www.w3.org/2000/svg" version="1.1" viewBox="0 0 546.08 342.3">
  <!-- Generator: Adobe Illustrator 30.5.1, SVG Export Plug-In . SVG Version: 2.1.4 Build 3)  -->
  <defs>
    <style>
      .st0 {
        fill: #f3f3ef;
      }
    </style>
  </defs>
  <path class="st0" d="M45.28,129.8v70.43h70.1v-70.43H45.28ZM103.37,154.19c-.18.2-.44.31-.78.31-.64,0-1.11-.35-1.31-.99-.4-1.42-1.12-2.46-2.2-3.19-1.08-.73-2.39-1.09-3.91-1.09h-6.56c-.57,0-1.01.15-1.35.47-.33.31-.49.71-.49,1.24v32.06c0,.51.15,1.21,1.5,1.45l.77.14c.55.04.9.44.9,1.06,0,.22-.08.92-1.06.92l-4.5-.18h-2.01v-36.31l-1.64-1.36-1.6,1.36v36.31h-1.97l-4.45.18c-.99,0-1.07-.71-1.07-.92,0-.62.35-1.01.94-1.06l.73-.13c1.34-.24,1.5-.94,1.5-1.45v-32.06c0-.53-.16-.94-.49-1.24-.34-.31-.78-.47-1.35-.47h-6.56c-1.51,0-2.83.37-3.91,1.1-1.08.73-1.8,1.77-2.2,3.18-.2.65-.67,1-1.31,1-.34,0-.6-.1-.78-.31-.2-.22-.27-.53-.23-.93l.73-4.74c.07-.59.32-1.1.74-1.51.43-.42.99-.63,1.66-.63h39.35c.67,0,1.23.21,1.66.63.43.41.68.92.75,1.53l.72,4.72c.05.42-.03.73-.23.95Z"/>
  <g>
    <path class="st0" d="M142.98,142.88h6.59c1.17,0,1.71.6,1.71,1.88v44.24c0,.87-.3,1.55-.92,2.05-.64.52-1.44.83-2.37.93l-2.89.16c-.77,0-1.2.45-1.2,1.28,0,.39.15.72.44.98.28.25.59.38.92.38h0l9.72-.31,8.88.31c.33,0,.63-.13.91-.38.29-.26.44-.59.44-.98,0-.82-.43-1.28-1.18-1.28h0l-2.27-.16c-.94-.1-1.74-.41-2.38-.93-.62-.5-.93-1.18-.93-2.05v-44.24c0-1.28.54-1.88,1.71-1.88h6.59c2.43,0,4.36.67,5.75,1.98,1.4,1.33,2.58,3.4,3.51,6.14.36.89.87,1.34,1.53,1.34.62,0,1.09-.16,1.4-.47.32-.32.45-.73.39-1.22l-.79-9.78c-.15-1.76-1.2-2.13-2.06-2.13h-43.49c-1.18,0-1.86.6-1.98,1.74l-.63,10.16c-.06.44.06.84.38,1.19.31.34.79.52,1.4.52.66,0,1.18-.45,1.54-1.36.82-2.68,1.96-4.73,3.39-6.08,1.41-1.34,3.39-2.02,5.87-2.02Z"/>
    <path class="st0" d="M225.72,194.46c1,0,1.87-.33,2.57-.97.7-.64,1.11-1.45,1.22-2.4l1.26-8.21c.06-.44-.05-.84-.33-1.18-.29-.35-.77-.53-1.45-.53-.72,0-1.24.49-1.54,1.45-.76,2.5-2.12,4.43-4.02,5.74-1.91,1.3-4.23,1.97-6.88,1.97h-12.95c-1.09,0-1.95-.3-2.61-.92-.66-.61-.98-1.41-.98-2.45v-18.3c0-.75.35-.85.69-.85h14.68c1.55,0,2.52,1.27,2.97,3.89l.23,1.42c.12.74.6,1.16,1.38,1.16h0c.81-.13,1.23-.62,1.23-1.45l-.31-6.36.31-6.72c0-1.18-.75-1.36-1.2-1.36-.75,0-1.24.39-1.42,1.13l-.31,1.02c-.26.82-.45,1.4-.58,1.71-.12.28-.37.59-.76.93-.37.33-.88.49-1.56.49h-14.6c-.54,0-.77-.23-.77-.77v-16.56c0-1.08.33-1.93.98-2.53.67-.62,1.52-.92,2.61-.92h12.32c2.71,0,4.85.52,6.37,1.54,1.51,1.01,2.67,2.77,3.43,5.22.29.94.96,1.44,1.93,1.44.49,0,.85-.14,1.09-.41.26-.29.36-.73.29-1.3l-1.1-7.25c-.11-.95-.51-1.76-1.18-2.4-.67-.65-1.55-.98-2.61-.98h-27.86l-8.88-.32c-.87,0-1.35.47-1.35,1.32,0,1.15.69,1.32,1.09,1.32h0l2.28.24c2.27.2,3.38,1.15,3.38,2.9v44.79c0,.87-.3,1.54-.93,2.05-.64.52-1.46.83-2.45.93l-2.26.16c-.42,0-1.12.17-1.12,1.32,0,.85.48,1.32,1.36,1.32l8.86-.31h29.44Z"/>
    <path class="st0" d="M282.42,193.48c.67-.64,1.06-1.45,1.17-2.4l1.26-8.21c.06-.58-.04-1.01-.3-1.31-.23-.26-.59-.4-1.06-.4-.94,0-1.59.5-1.89,1.45-.71,2.5-2.05,4.43-3.98,5.73-1.94,1.3-4.29,1.97-7,1.97h-11.38c-1.09,0-1.95-.3-2.62-.92-.66-.61-.98-1.41-.98-2.45v-42.74c0-1.61.96-2.56,2.93-2.9l1.31-.23c.81-.07,1.25-.58,1.25-1.44,0-.45-.19-1.2-1.44-1.2l-7.75.32-8.88-.32c-.87,0-1.35.48-1.35,1.36,0,.71.37,1.15,1.09,1.28l2.28.24c2.28.2,3.38,1.15,3.38,2.9v44.79c0,.87-.3,1.54-.93,2.05-.64.52-1.46.83-2.45.93l-2.26.16c-.42,0-1.12.17-1.12,1.32,0,.85.48,1.32,1.36,1.32l8.86-.31h27.87c1.06,0,1.93-.33,2.61-.98Z"/>
    <path class="st0" d="M337.77,182.88c.06-.58-.04-1.02-.3-1.31-.23-.26-.59-.4-1.06-.4-.94,0-1.59.5-1.89,1.45-.71,2.5-2.05,4.43-3.98,5.73-1.94,1.3-4.29,1.97-7,1.97h-11.38c-1.09,0-1.95-.3-2.61-.92-.66-.61-.98-1.41-.98-2.45v-42.74c0-1.61.96-2.56,2.93-2.9l1.31-.23c.81-.07,1.25-.58,1.25-1.44,0-.45-.19-1.2-1.44-1.2l-7.75.32-8.88-.32c-.87,0-1.35.48-1.35,1.36,0,.71.37,1.15,1.09,1.28l2.28.24c2.27.2,3.38,1.15,3.38,2.9v44.79c0,.87-.3,1.54-.93,2.05-.64.52-1.46.83-2.45.93l-2.26.16c-.42,0-1.12.17-1.12,1.32,0,.85.48,1.32,1.36,1.32l8.86-.31h27.87c1.06,0,1.93-.33,2.61-.98.67-.64,1.06-1.45,1.17-2.4l1.26-8.21Z"/>
    <path class="st0" d="M347.86,141.07l2.28.24c2.28.2,3.38,1.15,3.38,2.9v44.79c0,1.76-.98,2.73-3,2.98l-1.35.16c-.49.09-1.07.41-1.07,1.39,0,.8.48,1.24,1.35,1.24h0l7.75-.31,8.88.31c.33,0,.63-.13.91-.38.29-.26.44-.59.44-.98,0-.82-.42-1.28-1.18-1.28h0l-2.27-.16c-.94-.1-1.74-.41-2.38-.93-.62-.5-.93-1.18-.93-2.05v-44.79c0-1.61.96-2.56,2.93-2.9l1.31-.23c.81-.07,1.25-.58,1.25-1.44,0-.45-.19-1.2-1.44-1.2l-7.75.32-8.88-.32c-.87,0-1.35.48-1.35,1.36,0,.71.37,1.15,1.09,1.28Z"/>
    <path class="st0" d="M375.78,194.77h0l7.12-.31,6.84.31c.92,0,1.43-.48,1.43-1.36,0-.49-.22-1.12-1.25-1.28l-1.73-.16c-.67-.05-1.18-.29-1.55-.74-.38-.45-.57-.85-.57-1.18,0-.37.05-.7.14-.98l4.63-12.06c.17-.43.49-.63,1.02-.63h20.33c.75,0,.93.34,1.02.62l4.64,12.09c.14.28.21.61.21.99,0,.35-.2.74-.6,1.17-.4.42-.91.66-1.52.71l-1.81.16c-.76.07-1.18.58-1.18,1.44,0,.45.18,1.2,1.36,1.2l8.07-.31,9.03.31c.87,0,1.35-.51,1.35-1.44,0-.27-.1-.53-.29-.78-.26-.34-.55-.41-.72-.41h0l-1.65-.16c-2.22-.2-3.61-1.21-4.26-3.08l-20.1-49.92c-.3-.73-1.03-1.11-2.16-1.11s-1.84.38-2.08,1.11l-20.17,49.92c-.75,1.82-2.18,2.82-4.35,3.08l-1.46.16c-.42,0-1.12.17-1.12,1.32,0,.85.48,1.32,1.36,1.32ZM392.88,172.16c-.04-.06-.04-.19,0-.34l9.1-23.68,9.1,23.51c.08.24.09.43.03.51-.05.06-.17.1-.34.1h-17.51c-.2,0-.34-.04-.39-.1Z"/>
    <path class="st0" d="M455.46,193.5c0-.53-.21-1.19-1.23-1.36l-1.33-.24c-1.97-.34-2.93-1.29-2.93-2.9v-37.7c0-.41.07-.52.06-.53.13,0,.23.03.27.06l33.04,42.5c.99,1.32,2.19,1.99,3.58,1.99h1.02c.72,0,1.12-.43,1.12-1.2v-49.92c0-1.61.96-2.56,2.93-2.9l1.33-.24c1.02-.16,1.23-.83,1.23-1.36,0-.45-.19-1.2-1.44-1.2l-6.1.24-7.62-.24c-1.18,0-1.35.75-1.35,1.2,0,.76.37,1.23,1.09,1.36l2.27.24c2.22.25,3.31,1.19,3.31,2.9v38.25c0,.17-.04.22-.06.22-.14,0-.26-.05-.35-.14l-32.74-42.2c-.83-1-2.05-1.53-3.64-1.59l-6.29-.24c-1.25,0-1.43.78-1.43,1.24,0,.78.4,1.27,1.17,1.4l1.41.16c1.96.24,2.92,1.19,2.92,2.9v44.79c0,1.7-1.11,2.65-3.39,2.9l-2.29.24c-.7.13-1.07.6-1.07,1.36,0,.45.18,1.2,1.36,1.2l7.6-.24,6.13.24c1.24,0,1.43-.75,1.43-1.2Z"/>
  </g>
</svg>