<?xml version="1.0" encoding="UTF-8"?>
<svg id="Layer_1" xmlns="http://www.w3.org/2000/svg" version="1.1" viewBox="0 0 546.08 342.3">
  <!-- Generator: Adobe Illustrator 30.5.1, SVG Export Plug-In . SVG Version: 2.1.4 Build 3)  -->
  <defs>
    <style>
      .st0 {
        fill: #f3f3ef;
      }
    </style>
  </defs>
  <path class="st0" d="M352.83,133.49l-2.6-16.92c-.25-2.17-1.15-4.01-2.68-5.48-1.56-1.49-3.56-2.25-5.97-2.25h-141.21c-2.41,0-4.41.76-5.97,2.25-1.53,1.47-2.43,3.31-2.67,5.43l-2.61,17.03c-.16,1.44.12,2.57.82,3.35.65.73,1.59,1.1,2.8,1.1,2.31,0,3.98-1.26,4.71-3.6,1.44-5.06,4.02-8.79,7.9-11.4,3.87-2.61,8.59-3.93,14.02-3.93h23.55c2.05,0,3.63.55,4.85,1.68,1.18,1.1,1.75,2.56,1.75,4.47v115.05c0,1.82-.55,4.34-5.38,5.19l-2.63.47c-2.1.16-3.36,1.59-3.36,3.8,0,.78.28,3.32,3.84,3.32l15.98-.65h7.09V122.11l5.73-4.86,5.88,4.86v130.29h7.2l16.13.65c3.51,0,3.79-2.54,3.79-3.32,0-2.22-1.25-3.64-3.23-3.79l-2.76-.49c-4.82-.84-5.38-3.37-5.38-5.19v-115.05c0-1.91.58-3.37,1.75-4.47,1.22-1.13,2.8-1.68,4.85-1.68h23.55c5.43,0,10.15,1.32,14.02,3.93,3.88,2.62,6.46,6.35,7.91,11.44.72,2.3,2.39,3.56,4.7,3.56,1.21,0,2.15-.37,2.8-1.1.7-.78.98-1.91.81-3.4Z"/>
</svg>