<?xml version="1.0" encoding="UTF-8"?>
<svg id="Layer_1" xmlns="http://www.w3.org/2000/svg" version="1.1" viewBox="0 0 360 216">
  <!-- Generator: Adobe Illustrator 29.8.7, SVG Export Plug-In . SVG Version: 2.1.1 Build 1)  -->
  <defs>
    <style>
      .st0 {
        fill: #bdbdbd;
      }
    </style>
  </defs>
  <g>
    <polygon class="st0" points="155.84 10.98 154.25 12.6 154.25 12.8 180.99 12.8 182.77 10.98 180.99 9.21 154.25 9.21 154.25 9.41 155.84 10.98"/>
    <polygon class="st0" points="155.84 38.67 154.25 40.28 154.25 40.48 180.99 40.48 182.77 38.67 180.99 36.89 154.25 36.89 154.25 37.09 155.84 38.67"/>
    <polygon class="st0" points="140.99 24.82 139.4 26.44 139.4 26.64 166.14 26.64 167.92 24.82 166.14 23.05 139.4 23.05 139.4 23.25 140.99 24.82"/>
    <polygon class="st0" points="155.84 66.68 154.25 68.3 154.25 68.5 180.99 68.5 182.77 66.68 180.99 64.91 154.25 64.91 154.25 65.11 155.84 66.68"/>
    <polygon class="st0" points="140.99 52.84 139.4 54.46 139.4 54.66 166.14 54.66 167.92 52.84 166.14 51.07 139.4 51.07 139.4 51.26 140.99 52.84"/>
    <polygon class="st0" points="155.84 94.7 154.25 96.32 154.25 96.52 180.99 96.52 182.77 94.7 180.99 92.93 154.25 92.93 154.25 93.12 155.84 94.7"/>
    <polygon class="st0" points="140.99 80.86 139.4 82.48 139.4 82.68 166.14 82.68 167.92 80.86 166.14 79.09 139.4 79.09 139.4 79.28 140.99 80.86"/>
    <polygon class="st0" points="155.84 122.72 154.25 124.34 154.25 124.54 180.99 124.54 182.77 122.72 180.99 120.95 154.25 120.95 154.25 121.14 155.84 122.72"/>
    <polygon class="st0" points="140.99 108.88 139.4 110.5 139.4 110.7 166.14 110.7 167.92 108.88 166.14 107.11 139.4 107.11 139.4 107.3 140.99 108.88"/>
    <polygon class="st0" points="155.84 150.74 154.25 152.36 154.25 152.56 180.99 152.56 182.77 150.74 180.99 148.97 154.25 148.97 154.25 149.16 155.84 150.74"/>
    <polygon class="st0" points="140.99 136.9 139.4 138.52 139.4 138.71 166.14 138.71 167.92 136.9 166.14 135.13 139.4 135.13 139.4 135.32 140.99 136.9"/>
    <polygon class="st0" points="155.84 178.76 154.25 180.38 154.25 180.57 180.99 180.57 182.77 178.76 180.99 176.98 154.25 176.98 154.25 177.18 155.84 178.76"/>
    <polygon class="st0" points="140.99 164.91 139.4 166.53 139.4 166.73 166.14 166.73 167.92 164.91 166.14 163.14 139.4 163.14 139.4 163.34 140.99 164.91"/>
    <polygon class="st0" points="155.84 206.77 154.25 208.39 154.25 208.59 180.99 208.59 182.77 206.77 180.99 205 154.25 205 154.25 205.2 155.84 206.77"/>
    <polygon class="st0" points="140.99 192.93 139.4 194.55 139.4 194.75 166.14 194.75 167.92 192.93 166.14 191.16 139.4 191.16 139.4 191.36 140.99 192.93"/>
  </g>
  <g>
    <polygon class="st0" points="114.86 10.98 113.27 12.6 113.27 12.8 140 12.8 141.79 10.98 140 9.21 113.27 9.21 113.27 9.41 114.86 10.98"/>
    <polygon class="st0" points="114.86 38.67 113.27 40.28 113.27 40.48 140 40.48 141.79 38.67 140 36.89 113.27 36.89 113.27 37.09 114.86 38.67"/>
    <polygon class="st0" points="100.01 24.82 98.42 26.44 98.42 26.64 125.16 26.64 126.94 24.82 125.16 23.05 98.42 23.05 98.42 23.25 100.01 24.82"/>
    <polygon class="st0" points="114.86 66.68 113.27 68.3 113.27 68.5 140 68.5 141.79 66.68 140 64.91 113.27 64.91 113.27 65.11 114.86 66.68"/>
    <polygon class="st0" points="100.01 52.84 98.42 54.46 98.42 54.66 125.16 54.66 126.94 52.84 125.16 51.07 98.42 51.07 98.42 51.26 100.01 52.84"/>
    <polygon class="st0" points="114.86 94.7 113.27 96.32 113.27 96.52 140 96.52 141.79 94.7 140 92.93 113.27 92.93 113.27 93.12 114.86 94.7"/>
    <polygon class="st0" points="100.01 80.86 98.42 82.48 98.42 82.68 125.16 82.68 126.94 80.86 125.16 79.09 98.42 79.09 98.42 79.28 100.01 80.86"/>
    <polygon class="st0" points="114.86 122.72 113.27 124.34 113.27 124.54 140 124.54 141.79 122.72 140 120.95 113.27 120.95 113.27 121.14 114.86 122.72"/>
    <polygon class="st0" points="100.01 108.88 98.42 110.5 98.42 110.7 125.16 110.7 126.94 108.88 125.16 107.11 98.42 107.11 98.42 107.3 100.01 108.88"/>
    <polygon class="st0" points="114.86 150.74 113.27 152.36 113.27 152.56 140 152.56 141.79 150.74 140 148.97 113.27 148.97 113.27 149.16 114.86 150.74"/>
    <polygon class="st0" points="100.01 136.9 98.42 138.52 98.42 138.71 125.16 138.71 126.94 136.9 125.16 135.13 98.42 135.13 98.42 135.32 100.01 136.9"/>
    <polygon class="st0" points="114.86 178.76 113.27 180.38 113.27 180.57 140 180.57 141.79 178.76 140 176.98 113.27 176.98 113.27 177.18 114.86 178.76"/>
    <polygon class="st0" points="100.01 164.91 98.42 166.53 98.42 166.73 125.16 166.73 126.94 164.91 125.16 163.14 98.42 163.14 98.42 163.34 100.01 164.91"/>
    <polygon class="st0" points="114.86 206.77 113.27 208.39 113.27 208.59 140 208.59 141.79 206.77 140 205 113.27 205 113.27 205.2 114.86 206.77"/>
    <polygon class="st0" points="100.01 192.93 98.42 194.55 98.42 194.75 125.16 194.75 126.94 192.93 125.16 191.16 98.42 191.16 98.42 191.36 100.01 192.93"/>
  </g>
  <g>
    <polygon class="st0" points="73.87 10.98 72.29 12.6 72.29 12.8 99.02 12.8 100.8 10.98 99.02 9.21 72.29 9.21 72.29 9.41 73.87 10.98"/>
    <polygon class="st0" points="73.87 38.67 72.29 40.28 72.29 40.48 99.02 40.48 100.8 38.67 99.02 36.89 72.29 36.89 72.29 37.09 73.87 38.67"/>
    <polygon class="st0" points="59.03 24.82 57.44 26.44 57.44 26.64 84.17 26.64 85.96 24.82 84.17 23.05 57.44 23.05 57.44 23.25 59.03 24.82"/>
    <polygon class="st0" points="29.77 10.98 28.18 12.6 28.18 12.8 54.92 12.8 56.7 10.98 54.92 9.21 28.18 9.21 28.18 9.41 29.77 10.98"/>
    <polygon class="st0" points="29.77 38.67 28.18 40.28 28.18 40.48 54.92 40.48 56.7 38.67 54.92 36.89 28.18 36.89 28.18 37.09 29.77 38.67"/>
    <polygon class="st0" points="14.92 24.82 13.33 26.44 13.33 26.64 40.07 26.64 41.85 24.82 40.07 23.05 13.33 23.05 13.33 23.25 14.92 24.82"/>
    <polygon class="st0" points="73.87 66.68 72.29 68.3 72.29 68.5 99.02 68.5 100.8 66.68 99.02 64.91 72.29 64.91 72.29 65.11 73.87 66.68"/>
    <polygon class="st0" points="59.03 52.84 57.44 54.46 57.44 54.66 84.17 54.66 85.96 52.84 84.17 51.07 57.44 51.07 57.44 51.26 59.03 52.84"/>
    <polygon class="st0" points="73.87 94.7 72.29 96.32 72.29 96.52 99.02 96.52 100.8 94.7 99.02 92.93 72.29 92.93 72.29 93.12 73.87 94.7"/>
    <polygon class="st0" points="59.03 80.86 57.44 82.48 57.44 82.68 84.17 82.68 85.96 80.86 84.17 79.09 57.44 79.09 57.44 79.28 59.03 80.86"/>
    <polygon class="st0" points="73.87 122.72 72.29 124.34 72.29 124.54 99.02 124.54 100.8 122.72 99.02 120.95 72.29 120.95 72.29 121.14 73.87 122.72"/>
    <polygon class="st0" points="59.03 108.88 57.44 110.5 57.44 110.7 84.17 110.7 85.96 108.88 84.17 107.11 57.44 107.11 57.44 107.3 59.03 108.88"/>
    <polygon class="st0" points="73.87 150.74 72.29 152.36 72.29 152.56 99.02 152.56 100.8 150.74 99.02 148.97 72.29 148.97 72.29 149.16 73.87 150.74"/>
    <polygon class="st0" points="59.03 136.9 57.44 138.52 57.44 138.71 84.17 138.71 85.96 136.9 84.17 135.13 57.44 135.13 57.44 135.32 59.03 136.9"/>
    <polygon class="st0" points="73.87 178.76 72.29 180.38 72.29 180.57 99.02 180.57 100.8 178.76 99.02 176.98 72.29 176.98 72.29 177.18 73.87 178.76"/>
    <polygon class="st0" points="59.03 164.91 57.44 166.53 57.44 166.73 84.17 166.73 85.96 164.91 84.17 163.14 57.44 163.14 57.44 163.34 59.03 164.91"/>
    <polygon class="st0" points="73.87 206.77 72.29 208.39 72.29 208.59 99.02 208.59 100.8 206.77 99.02 205 72.29 205 72.29 205.2 73.87 206.77"/>
    <polygon class="st0" points="59.03 192.93 57.44 194.55 57.44 194.75 84.17 194.75 85.96 192.93 84.17 191.16 57.44 191.16 57.44 191.36 59.03 192.93"/>
  </g>
  <g>
    <polygon class="st0" points="32.89 66.68 31.3 68.3 31.3 68.5 58.04 68.5 59.82 66.68 58.04 64.91 31.3 64.91 31.3 65.11 32.89 66.68"/>
    <polygon class="st0" points="18.04 52.84 16.46 54.46 16.46 54.66 43.19 54.66 44.97 52.84 43.19 51.07 16.46 51.07 16.46 51.26 18.04 52.84"/>
    <polygon class="st0" points="32.89 94.7 31.3 96.32 31.3 96.52 58.04 96.52 59.82 94.7 58.04 92.93 31.3 92.93 31.3 93.12 32.89 94.7"/>
    <polygon class="st0" points="18.04 80.86 16.46 82.48 16.46 82.68 43.19 82.68 44.97 80.86 43.19 79.09 16.46 79.09 16.46 79.28 18.04 80.86"/>
    <polygon class="st0" points="32.89 122.72 31.3 124.34 31.3 124.54 58.04 124.54 59.82 122.72 58.04 120.95 31.3 120.95 31.3 121.14 32.89 122.72"/>
    <polygon class="st0" points="18.04 108.88 16.46 110.5 16.46 110.7 43.19 110.7 44.97 108.88 43.19 107.11 16.46 107.11 16.46 107.3 18.04 108.88"/>
    <polygon class="st0" points="32.89 150.74 31.3 152.36 31.3 152.56 58.04 152.56 59.82 150.74 58.04 148.97 31.3 148.97 31.3 149.16 32.89 150.74"/>
    <polygon class="st0" points="18.04 136.9 16.46 138.52 16.46 138.71 43.19 138.71 44.97 136.9 43.19 135.13 16.46 135.13 16.46 135.32 18.04 136.9"/>
    <polygon class="st0" points="32.89 178.76 31.3 180.38 31.3 180.57 58.04 180.57 59.82 178.76 58.04 176.98 31.3 176.98 31.3 177.18 32.89 178.76"/>
    <polygon class="st0" points="18.04 164.91 16.46 166.53 16.46 166.73 43.19 166.73 44.97 164.91 43.19 163.14 16.46 163.14 16.46 163.34 18.04 164.91"/>
    <polygon class="st0" points="32.89 206.77 31.3 208.39 31.3 208.59 58.04 208.59 59.82 206.77 58.04 205 31.3 205 31.3 205.2 32.89 206.77"/>
    <polygon class="st0" points="18.04 192.93 16.46 194.55 16.46 194.75 43.19 194.75 44.97 192.93 43.19 191.16 16.46 191.16 16.46 191.36 18.04 192.93"/>
  </g>
  <g>
    <polygon class="st0" points="320.64 10.98 319.05 12.6 319.05 12.8 345.79 12.8 347.57 10.98 345.79 9.21 319.05 9.21 319.05 9.41 320.64 10.98"/>
    <polygon class="st0" points="320.64 38.67 319.05 40.28 319.05 40.48 345.79 40.48 347.57 38.67 345.79 36.89 319.05 36.89 319.05 37.09 320.64 38.67"/>
    <polygon class="st0" points="305.79 24.82 304.2 26.44 304.2 26.64 330.94 26.64 332.72 24.82 330.94 23.05 304.2 23.05 304.2 23.25 305.79 24.82"/>
    <polygon class="st0" points="320.64 66.68 319.05 68.3 319.05 68.5 345.79 68.5 347.57 66.68 345.79 64.91 319.05 64.91 319.05 65.11 320.64 66.68"/>
    <polygon class="st0" points="305.79 52.84 304.2 54.46 304.2 54.66 330.94 54.66 332.72 52.84 330.94 51.07 304.2 51.07 304.2 51.26 305.79 52.84"/>
    <polygon class="st0" points="320.64 94.7 319.05 96.32 319.05 96.52 345.79 96.52 347.57 94.7 345.79 92.93 319.05 92.93 319.05 93.12 320.64 94.7"/>
    <polygon class="st0" points="305.79 80.86 304.2 82.48 304.2 82.68 330.94 82.68 332.72 80.86 330.94 79.09 304.2 79.09 304.2 79.28 305.79 80.86"/>
    <polygon class="st0" points="320.64 122.72 319.05 124.34 319.05 124.54 345.79 124.54 347.57 122.72 345.79 120.95 319.05 120.95 319.05 121.14 320.64 122.72"/>
    <polygon class="st0" points="305.79 108.88 304.2 110.5 304.2 110.7 330.94 110.7 332.72 108.88 330.94 107.11 304.2 107.11 304.2 107.3 305.79 108.88"/>
    <polygon class="st0" points="320.64 150.74 319.05 152.36 319.05 152.56 345.79 152.56 347.57 150.74 345.79 148.97 319.05 148.97 319.05 149.16 320.64 150.74"/>
    <polygon class="st0" points="305.79 136.9 304.2 138.52 304.2 138.71 330.94 138.71 332.72 136.9 330.94 135.13 304.2 135.13 304.2 135.32 305.79 136.9"/>
    <polygon class="st0" points="320.64 178.76 319.05 180.38 319.05 180.57 345.79 180.57 347.57 178.76 345.79 176.98 319.05 176.98 319.05 177.18 320.64 178.76"/>
    <polygon class="st0" points="305.79 164.91 304.2 166.53 304.2 166.73 330.94 166.73 332.72 164.91 330.94 163.14 304.2 163.14 304.2 163.34 305.79 164.91"/>
    <polygon class="st0" points="320.64 206.77 319.05 208.39 319.05 208.59 345.79 208.59 347.57 206.77 345.79 205 319.05 205 319.05 205.2 320.64 206.77"/>
    <polygon class="st0" points="305.79 192.93 304.2 194.55 304.2 194.75 330.94 194.75 332.72 192.93 330.94 191.16 304.2 191.16 304.2 191.36 305.79 192.93"/>
  </g>
  <g>
    <polygon class="st0" points="279.66 10.98 278.07 12.6 278.07 12.8 304.8 12.8 306.59 10.98 304.8 9.21 278.07 9.21 278.07 9.41 279.66 10.98"/>
    <polygon class="st0" points="279.66 38.67 278.07 40.28 278.07 40.48 304.8 40.48 306.59 38.67 304.8 36.89 278.07 36.89 278.07 37.09 279.66 38.67"/>
    <polygon class="st0" points="264.81 24.82 263.22 26.44 263.22 26.64 289.96 26.64 291.74 24.82 289.96 23.05 263.22 23.05 263.22 23.25 264.81 24.82"/>
    <polygon class="st0" points="279.66 66.68 278.07 68.3 278.07 68.5 304.8 68.5 306.59 66.68 304.8 64.91 278.07 64.91 278.07 65.11 279.66 66.68"/>
    <polygon class="st0" points="264.81 52.84 263.22 54.46 263.22 54.66 289.96 54.66 291.74 52.84 289.96 51.07 263.22 51.07 263.22 51.26 264.81 52.84"/>
    <polygon class="st0" points="279.66 94.7 278.07 96.32 278.07 96.52 304.8 96.52 306.59 94.7 304.8 92.93 278.07 92.93 278.07 93.12 279.66 94.7"/>
    <polygon class="st0" points="264.81 80.86 263.22 82.48 263.22 82.68 289.96 82.68 291.74 80.86 289.96 79.09 263.22 79.09 263.22 79.28 264.81 80.86"/>
    <polygon class="st0" points="279.66 122.72 278.07 124.34 278.07 124.54 304.8 124.54 306.59 122.72 304.8 120.95 278.07 120.95 278.07 121.14 279.66 122.72"/>
    <polygon class="st0" points="264.81 108.88 263.22 110.5 263.22 110.7 289.96 110.7 291.74 108.88 289.96 107.11 263.22 107.11 263.22 107.3 264.81 108.88"/>
    <polygon class="st0" points="279.66 150.74 278.07 152.36 278.07 152.56 304.8 152.56 306.59 150.74 304.8 148.97 278.07 148.97 278.07 149.16 279.66 150.74"/>
    <polygon class="st0" points="264.81 136.9 263.22 138.52 263.22 138.71 289.96 138.71 291.74 136.9 289.96 135.13 263.22 135.13 263.22 135.32 264.81 136.9"/>
    <polygon class="st0" points="279.66 178.76 278.07 180.38 278.07 180.57 304.8 180.57 306.59 178.76 304.8 176.98 278.07 176.98 278.07 177.18 279.66 178.76"/>
    <polygon class="st0" points="264.81 164.91 263.22 166.53 263.22 166.73 289.96 166.73 291.74 164.91 289.96 163.14 263.22 163.14 263.22 163.34 264.81 164.91"/>
    <polygon class="st0" points="279.66 206.77 278.07 208.39 278.07 208.59 304.8 208.59 306.59 206.77 304.8 205 278.07 205 278.07 205.2 279.66 206.77"/>
    <polygon class="st0" points="264.81 192.93 263.22 194.55 263.22 194.75 289.96 194.75 291.74 192.93 289.96 191.16 263.22 191.16 263.22 191.36 264.81 192.93"/>
  </g>
  <g>
    <polygon class="st0" points="238.67 10.98 237.08 12.6 237.08 12.8 263.82 12.8 265.6 10.98 263.82 9.21 237.08 9.21 237.08 9.41 238.67 10.98"/>
    <polygon class="st0" points="238.67 38.67 237.08 40.28 237.08 40.48 263.82 40.48 265.6 38.67 263.82 36.89 237.08 36.89 237.08 37.09 238.67 38.67"/>
    <polygon class="st0" points="223.83 24.82 222.24 26.44 222.24 26.64 248.97 26.64 250.76 24.82 248.97 23.05 222.24 23.05 222.24 23.25 223.83 24.82"/>
    <polygon class="st0" points="194.57 10.98 192.98 12.6 192.98 12.8 219.71 12.8 221.5 10.98 219.71 9.21 192.98 9.21 192.98 9.41 194.57 10.98"/>
    <polygon class="st0" points="194.57 38.67 192.98 40.28 192.98 40.48 219.71 40.48 221.5 38.67 219.71 36.89 192.98 36.89 192.98 37.09 194.57 38.67"/>
    <polygon class="st0" points="179.72 24.82 178.13 26.44 178.13 26.64 204.87 26.64 206.65 24.82 204.87 23.05 178.13 23.05 178.13 23.25 179.72 24.82"/>
    <polygon class="st0" points="238.67 66.68 237.08 68.3 237.08 68.5 263.82 68.5 265.6 66.68 263.82 64.91 237.08 64.91 237.08 65.11 238.67 66.68"/>
    <polygon class="st0" points="223.83 52.84 222.24 54.46 222.24 54.66 248.97 54.66 250.76 52.84 248.97 51.07 222.24 51.07 222.24 51.26 223.83 52.84"/>
    <polygon class="st0" points="238.67 94.7 237.08 96.32 237.08 96.52 263.82 96.52 265.6 94.7 263.82 92.93 237.08 92.93 237.08 93.12 238.67 94.7"/>
    <polygon class="st0" points="223.83 80.86 222.24 82.48 222.24 82.68 248.97 82.68 250.76 80.86 248.97 79.09 222.24 79.09 222.24 79.28 223.83 80.86"/>
    <polygon class="st0" points="238.67 122.72 237.08 124.34 237.08 124.54 263.82 124.54 265.6 122.72 263.82 120.95 237.08 120.95 237.08 121.14 238.67 122.72"/>
    <polygon class="st0" points="223.83 108.88 222.24 110.5 222.24 110.7 248.97 110.7 250.76 108.88 248.97 107.11 222.24 107.11 222.24 107.3 223.83 108.88"/>
    <polygon class="st0" points="238.67 150.74 237.08 152.36 237.08 152.56 263.82 152.56 265.6 150.74 263.82 148.97 237.08 148.97 237.08 149.16 238.67 150.74"/>
    <polygon class="st0" points="223.83 136.9 222.24 138.52 222.24 138.71 248.97 138.71 250.76 136.9 248.97 135.13 222.24 135.13 222.24 135.32 223.83 136.9"/>
    <polygon class="st0" points="238.67 178.76 237.08 180.38 237.08 180.57 263.82 180.57 265.6 178.76 263.82 176.98 237.08 176.98 237.08 177.18 238.67 178.76"/>
    <polygon class="st0" points="223.83 164.91 222.24 166.53 222.24 166.73 248.97 166.73 250.76 164.91 248.97 163.14 222.24 163.14 222.24 163.34 223.83 164.91"/>
    <polygon class="st0" points="238.67 206.77 237.08 208.39 237.08 208.59 263.82 208.59 265.6 206.77 263.82 205 237.08 205 237.08 205.2 238.67 206.77"/>
    <polygon class="st0" points="223.83 192.93 222.24 194.55 222.24 194.75 248.97 194.75 250.76 192.93 248.97 191.16 222.24 191.16 222.24 191.36 223.83 192.93"/>
  </g>
  <g>
    <polygon class="st0" points="197.69 66.68 196.1 68.3 196.1 68.5 222.84 68.5 224.62 66.68 222.84 64.91 196.1 64.91 196.1 65.11 197.69 66.68"/>
    <polygon class="st0" points="182.84 52.84 181.25 54.46 181.25 54.66 207.99 54.66 209.77 52.84 207.99 51.07 181.25 51.07 181.25 51.26 182.84 52.84"/>
    <polygon class="st0" points="197.69 94.7 196.1 96.32 196.1 96.52 222.84 96.52 224.62 94.7 222.84 92.93 196.1 92.93 196.1 93.12 197.69 94.7"/>
    <polygon class="st0" points="182.84 80.86 181.25 82.48 181.25 82.68 207.99 82.68 209.77 80.86 207.99 79.09 181.25 79.09 181.25 79.28 182.84 80.86"/>
    <polygon class="st0" points="197.69 122.72 196.1 124.34 196.1 124.54 222.84 124.54 224.62 122.72 222.84 120.95 196.1 120.95 196.1 121.14 197.69 122.72"/>
    <polygon class="st0" points="182.84 108.88 181.25 110.5 181.25 110.7 207.99 110.7 209.77 108.88 207.99 107.11 181.25 107.11 181.25 107.3 182.84 108.88"/>
    <polygon class="st0" points="197.69 150.74 196.1 152.36 196.1 152.56 222.84 152.56 224.62 150.74 222.84 148.97 196.1 148.97 196.1 149.16 197.69 150.74"/>
    <polygon class="st0" points="182.84 136.9 181.25 138.52 181.25 138.71 207.99 138.71 209.77 136.9 207.99 135.13 181.25 135.13 181.25 135.32 182.84 136.9"/>
    <polygon class="st0" points="197.69 178.76 196.1 180.38 196.1 180.57 222.84 180.57 224.62 178.76 222.84 176.98 196.1 176.98 196.1 177.18 197.69 178.76"/>
    <polygon class="st0" points="182.84 164.91 181.25 166.53 181.25 166.73 207.99 166.73 209.77 164.91 207.99 163.14 181.25 163.14 181.25 163.34 182.84 164.91"/>
    <polygon class="st0" points="197.69 206.77 196.1 208.39 196.1 208.59 222.84 208.59 224.62 206.77 222.84 205 196.1 205 196.1 205.2 197.69 206.77"/>
    <polygon class="st0" points="182.84 192.93 181.25 194.55 181.25 194.75 207.99 194.75 209.77 192.93 207.99 191.16 181.25 191.16 181.25 191.36 182.84 192.93"/>
  </g>
</svg>